HIERARCHY
ROOT Hips
{
	OFFSET 0.00000 0.00000 0.00000
	CHANNELS 6 Xposition Yposition Zposition Zrotation Yrotation Xrotation 
	JOINT LHipJoint
	{
		OFFSET 0 0 0
		CHANNELS 3 Zrotation Yrotation Xrotation
		JOINT LeftHip
		{
			OFFSET 1.48831 -1.59570 0.95625
			CHANNELS 3 Zrotation Yrotation Xrotation
			JOINT LeftKnee
			{
				OFFSET 2.20856 -6.06797 0.00000
				CHANNELS 3 Zrotation Yrotation Xrotation
				JOINT LeftAnkle
				{
					OFFSET 2.62924 -7.22379 0.00000
					CHANNELS 3 Zrotation Yrotation Xrotation
					JOINT LeftToe
					{
						OFFSET 0.16802 -0.46163 2.41673
						CHANNELS 3 Zrotation Yrotation Xrotation
						End Site
						{
							OFFSET 0.00000 -0.00000 1.23760
						}
					}
				}
			}
		}
	}
	JOINT RHipJoint
	{
		OFFSET 0 0 0
		CHANNELS 3 Zrotation Yrotation Xrotation
		JOINT RightHip
		{
			OFFSET -1.56796 -1.59570 0.95625
			CHANNELS 3 Zrotation Yrotation Xrotation
			JOINT RightKnee
			{
				OFFSET -2.29239 -6.29829 0.00000
				CHANNELS 3 Zrotation Yrotation Xrotation
				JOINT RightAnkle
				{
					OFFSET -2.66963 -7.33475 0.00000
					CHANNELS 3 Zrotation Yrotation Xrotation
					JOINT RightToe
					{
						OFFSET -0.18185 -0.49964 2.34359
						CHANNELS 3 Zrotation Yrotation Xrotation
						End Site
						{
							OFFSET -0.00000 -0.00000 1.20477
						}
					}
				}
			}
		}
	}
	JOINT lowerback
	{
		OFFSET 0 0 0
		CHANNELS 3 Zrotation Yrotation Xrotation
		JOINT Chest
		{
			OFFSET 0.03505 2.15832 -0.34324
			CHANNELS 3 Zrotation Yrotation Xrotation
			JOINT Chest2
			{
				OFFSET -0.01089 2.17963 0.04689
				CHANNELS 3 Zrotation Yrotation Xrotation
				JOINT lowerneck
				{
					OFFSET 0 0 0
					CHANNELS 3 Zrotation Yrotation Xrotation
					JOINT Neck
					{
						OFFSET 0.04686 1.69404 0.22159
						CHANNELS 3 Zrotation Yrotation Xrotation
						JOINT Head
						{
							OFFSET 0.00265 1.69305 -0.01513
							CHANNELS 3 Zrotation Yrotation Xrotation
							End Site
							{
								OFFSET -0.00415 1.80215 -0.03034
							}
						}
					}
				}
				JOINT LeftCollar
				{
					OFFSET 0 0 0
					CHANNELS 3 Zrotation Yrotation Xrotation
					JOINT LeftShoulder
					{
						OFFSET 3.67184 1.11724 -0.19002
CHANNELS 3 Zrotation Xrotation Yrotation
						JOINT LeftElbow
						{
OFFSET 0 -5.177140 -0.000000
CHANNELS 3 Zrotation Xrotation Yrotation
							JOINT LeftWrist
							{
OFFSET 0 -3.436790 -0.000000
CHANNELS 3 Zrotation Xrotation Yrotation
								JOINT lhand
								{
									OFFSET 0 0 0
CHANNELS 3 Zrotation Xrotation Yrotation
									JOINT LFingers
									{
OFFSET 0 -0.573120 -0.000000
CHANNELS 3 Zrotation Xrotation Yrotation
										End Site
										{
OFFSET 0 -0.462060 -0.000000
										}
									}
								}
								JOINT LThumb
								{
OFFSET 0 0.000000 0.000000
CHANNELS 3 Zrotation Xrotation Yrotation
									End Site
									{
OFFSET 0 -0.469120 0.469120
									}
								}
							}
						}
					}
				}
				JOINT RightCollar
				{
					OFFSET 0 0 0
					CHANNELS 3 Zrotation Yrotation Xrotation
					JOINT RightShoulder
					{
						OFFSET -3.59596 0.95831 -0.26050
CHANNELS 3 Zrotation Xrotation Yrotation
						JOINT RightElbow
						{
OFFSET 0 -5.239080 -0.000000
CHANNELS 3 Zrotation Xrotation Yrotation
							JOINT RightWrist
							{
OFFSET 0 -3.464850 -0.000000
CHANNELS 3 Zrotation Xrotation Yrotation
								JOINT rhand
								{
									OFFSET 0 0 0
CHANNELS 3 Zrotation Xrotation Yrotation
									JOINT RFingers
									{
OFFSET 0 -0.608750 -0.000000
CHANNELS 3 Zrotation Xrotation Yrotation
										End Site
										{
OFFSET 0 -0.490790 -0.000000
										}
									}
								}
								JOINT RThumb
								{
OFFSET 0 0.000000 0.000000
CHANNELS 3 Zrotation Xrotation Yrotation
									End Site
									{
OFFSET 0 -0.498290 0.498290
									}
								}
							}
						}
					}
				}
			}
		}
	}
}
MOTION
Frames: 7
Frame Time: 0.008333333333333333
0.349951 16.189143 -18.565305 -368.064351 -28.176019 361.568479 0.000000 0.000000 0.000000 -11.389079 3.491806 -29.061574 1.842517 8.530060 24.335941 0.755359 4.288520 -18.523509 0.235036 -3.120110 -8.613334 0.000000 0.000000 0.000000 28.962820 -4.879333 18.113903 -0.275154 -3.373880 9.321533 -1.093980 -8.548136 -24.583098 -0.125663 2.284504 -6.292633 6.369569 -2.016460 6.591568 3.156226 -2.072540 -0.421448 -0.077447 -1.142386 -4.252421 -6.775199 -16.424092 8.789227 12.572994 -22.089017 -5.436450 5.081141 -11.383039 -0.835707 0.000000 0.000000 0.000000 -0.140900 24.429370 -9.175005 14.446459 -23.369345 3.002950 8.101899 -21.372578 -10.182278 0.000000 0.000000 0.000000 -7.125000 0.000000 0.000000 -16.444456 39.721783 -2.208650 0.000000 0.000000 0.000000 -12.315689 -0.812712 40.474059 -15.535683 -24.886964 -3.448224 -5.300734 8.550550 1.223608 0.000000 0.000000 0.000000 7.125000 0.000000 0.000000 16.783701 30.929130 6.001216
0.234090 16.151654 -18.258452 -368.683162 -28.862559 362.349205 0.000000 0.000000 0.000000 -10.820511 3.734090 -28.506695 1.925352 8.708680 24.888341 0.672089 3.882253 -17.378127 0.305940 -3.555849 -9.830426 0.000000 0.000000 0.000000 29.022724 -4.840562 19.187028 -0.249799 -3.215674 8.879832 -1.046806 -7.949546 -23.747827 -0.191440 2.817415 -7.770788 6.197526 -1.967534 6.107033 2.979900 -2.062631 -0.550098 -0.180793 -1.134588 -4.112812 -6.756928 -16.217073 9.048655 12.664868 -21.823072 -5.425125 5.137706 -11.263067 -0.890002 0.000000 0.000000 0.000000 0.732973 24.028644 -9.047653 14.420365 -23.332418 2.992546 8.337060 -21.509954 -10.113910 0.000000 0.000000 0.000000 -7.125000 0.000000 0.000000 -16.228402 39.674672 -2.197227 0.000000 0.000000 0.000000 -11.526810 0.207967 39.143713 -15.458448 -24.780906 -3.415799 -5.742601 9.060002 1.120091 0.000000 0.000000 0.000000 7.125000 0.000000 0.000000 16.425670 30.842411 5.898844
0.123420 16.170145 -17.930599 -368.689786 -29.567963 362.862803 0.000000 0.000000 0.000000 -10.680318 4.032195 -28.333770 1.995345 8.856395 25.347175 0.449656 4.597354 -15.188571 0.275723 -3.377074 -9.330449 0.000000 0.000000 0.000000 28.441674 -4.812610 20.398132 -0.208281 -2.938205 8.106795 -0.888955 -7.691379 -22.193338 -0.305839 3.553911 -9.825099 5.506128 -1.924126 5.537177 2.692069 -2.105142 -0.642669 -0.110250 -1.140056 -3.873562 -6.786418 -15.979234 9.134405 12.622442 -21.514580 -5.447368 5.149959 -11.111173 -0.942021 0.000000 0.000000 0.000000 1.620510 23.145728 -8.745717 14.313286 -23.180799 2.950335 9.056384 -21.468855 -9.868773 0.000000 0.000000 0.000000 -7.125000 0.000000 0.000000 -15.559851 39.494446 -2.172428 0.000000 0.000000 0.000000 -10.782235 1.195869 37.362393 -15.323684 -24.595100 -3.359492 -6.712723 9.221029 1.173393 0.000000 0.000000 0.000000 7.125000 0.000000 0.000000 15.686267 30.921376 5.583394
0.020655 16.207059 -17.605410 -368.199608 -29.910668 362.811401 0.000000 0.000000 0.000000 -11.369938 5.237566 -27.966984 2.065138 9.000395 25.796550 0.274341 4.959016 -12.969696 0.251234 -3.224714 -8.905154 0.000000 0.000000 0.000000 27.497509 -4.906330 20.663320 -0.271075 -3.347893 9.248851 -0.785392 -7.354289 -20.979222 -0.439772 4.254626 -11.794141 4.457887 -1.973344 5.484014 2.276065 -2.252046 -0.763750 0.056550 -1.195911 -3.949440 -6.877818 -15.729322 9.133260 12.510292 -21.207058 -5.314606 5.132742 -10.951686 -0.935726 0.000000 0.000000 0.000000 2.673664 21.978019 -8.009033 14.199910 -23.019797 2.905865 9.437266 -21.259714 -9.522905 0.000000 0.000000 0.000000 -7.125000 0.000000 0.000000 -15.154567 39.187292 -2.230570 0.000000 0.000000 0.000000 -10.020799 2.510603 35.189112 -15.205811 -24.432061 -3.310601 -7.508961 9.492207 1.215206 0.000000 0.000000 0.000000 7.125000 0.000000 0.000000 15.076711 30.984027 5.328553
-0.063123 16.246764 -17.274278 -367.915649 -30.079645 362.649419 0.000000 0.000000 0.000000 -11.912375 6.142032 -27.289846 2.152017 9.175745 26.346747 0.224780 3.797624 -11.179200 0.146231 -2.461911 -6.784094 0.000000 0.000000 0.000000 26.950956 -4.379965 20.708077 -0.408427 -4.102114 11.364128 -0.654999 -7.703209 -19.983146 -0.566248 4.819418 -13.394197 3.829365 -2.084133 5.949143 1.856324 -2.419824 -1.032644 0.014181 -1.276635 -4.488281 -7.007748 -15.515346 9.461796 12.396350 -20.963202 -5.214084 5.150061 -10.832147 -0.980333 0.000000 0.000000 0.000000 3.898084 21.116888 -7.711810 14.513754 -23.464305 3.029739 9.678570 -21.555344 -9.363235 0.000000 0.000000 0.000000 -7.125000 0.000000 0.000000 -14.913402 39.049693 -2.245140 0.000000 0.000000 0.000000 -9.511131 4.266808 33.624586 -15.209775 -24.437572 -3.312274 -7.246930 9.550413 1.248704 0.000000 0.000000 0.000000 7.125000 0.000000 0.000000 15.285175 31.009391 5.397401
-0.135439 16.293957 -16.922875 -368.111588 -30.721988 362.736923 0.000000 0.000000 0.000000 -11.908957 6.259064 -26.152432 2.249352 9.367168 26.950763 0.183260 3.723466 -10.338292 0.029094 -1.081664 -2.973811 0.000000 0.000000 0.000000 26.787719 -3.359973 20.691542 -0.592632 -4.926967 13.700655 -0.467804 -8.367966 -18.586155 -0.639095 5.114602 -14.235639 3.641385 -2.130286 6.177496 1.614470 -2.486640 -1.220533 -0.109952 -1.312411 -4.817799 -7.136646 -15.213633 9.731403 12.026430 -20.622733 -4.853320 5.079969 -10.649747 -0.975711 0.000000 0.000000 0.000000 4.926227 20.549217 -8.052610 15.500411 -24.838022 3.433762 9.591874 -22.429412 -9.426928 0.000000 0.000000 0.000000 -7.125000 0.000000 0.000000 -15.001381 39.105377 -2.237929 0.000000 0.000000 0.000000 -9.602003 5.827487 33.567442 -15.257278 -24.503323 -3.331955 -6.357129 9.388532 1.388746 0.000000 0.000000 0.000000 7.125000 0.000000 0.000000 15.997246 31.119682 5.622680
-0.205472 16.342287 -16.552221 -368.430339 -31.767563 362.872993 0.000000 0.000000 0.000000 -11.840873 5.980193 -24.511940 2.321369 9.505589 27.389984 0.120097 5.103674 -10.336835 0.001167 0.205575 0.564928 0.000000 0.000000 0.000000 26.548660 -2.286077 20.378832 -0.850924 -5.881914 16.442601 -0.256434 -9.055585 -16.759847 -0.674519 5.251609 -14.627692 3.528224 -2.099181 6.001062 1.465802 -2.468534 -1.233895 -0.209551 -1.301716 -4.732715 -7.308244 -14.802651 9.913781 11.650141 -20.141928 -4.398281 5.002695 -10.394313 -0.938630 0.000000 0.000000 0.000000 6.061602 20.029839 -9.366946 16.896030 -26.720132 4.040684 9.285727 -23.430668 -9.380321 0.000000 0.000000 0.000000 -7.125000 0.000000 0.000000 -15.247933 39.036437 -2.303408 0.000000 0.000000 0.000000 -10.095808 6.884883 34.061014 -15.316591 -24.585310 -3.356570 -5.191806 9.339473 1.473774 0.000000 0.000000 0.000000 7.125000 0.000000 0.000000 16.911844 31.166138 5.950071
